<svg width="249" height="210" viewBox="0 0 249 210" fill="none" xmlns="http://www.w3.org/2000/svg">
<path d="M42.7652 190.263C40.5041 189.667 39.6644 188.965 40.7324 188.142C48.1542 182.412 81.9118 182.616 98.2848 182.636C118.881 182.663 140.306 182.53 158.877 183.942C166.647 184.533 184.243 185.085 187.285 187.029C195.266 192.136 139.17 193.488 130.088 193.55C114.95 193.653 55.679 193.668 42.7652 190.263Z" fill="#E2E8F0"/>
<path d="M169.844 114.345H113.976C112.79 114.345 111.665 113.822 110.897 112.918L95.6188 94.9408C94.8504 94.0366 93.7235 93.5143 92.5401 93.5143H48.1004C45.8663 93.5143 44.0544 95.3325 44.0544 97.5744V114.342V184.654C44.0544 186.896 45.8663 188.714 48.1004 188.714H171.27C173.504 188.714 175.316 186.896 175.316 184.654V119.836C175.316 116.804 172.866 114.345 169.844 114.345Z" fill="#E2E8F0"/>
<path d="M172.738 120.068C172.738 118.183 171.214 116.653 169.336 116.653H112.603C111.442 116.653 110.337 116.148 109.583 115.271L94.6049 97.8528C93.8512 96.9758 92.7489 96.4707 91.5851 96.4707H48.0219C45.8295 96.4707 44.0544 98.2322 44.0544 100.405V116.651V184.779C44.0544 186.952 45.8319 188.714 48.0219 188.714H168.773C170.966 188.714 172.741 186.952 172.741 184.779V120.068H172.738Z" fill="#E2E8F0"/>
<path d="M169.984 114.111C164.271 114.111 158.558 114.111 152.845 114.111C143.164 114.111 133.484 114.111 123.803 114.111C120.977 114.111 118.152 114.111 115.326 114.111C114.226 114.111 113.217 114.106 112.237 113.426C111.344 112.807 110.644 111.763 109.949 110.945C106.922 107.382 103.892 103.82 100.865 100.255C99.6231 98.7939 98.3832 97.333 97.141 95.872C96.1393 94.6944 95.2186 93.5611 93.5565 93.3295C91.5605 93.0511 89.4 93.2802 87.3942 93.2802C82.9308 93.2802 78.4675 93.2802 74.0066 93.2802C65.8262 93.2802 57.6458 93.2802 49.4654 93.2802C46.3597 93.2802 43.4799 94.5687 43.4627 98.1386C43.4406 102.379 43.4627 106.621 43.4627 110.861C43.4627 114.985 43.4627 119.11 43.4627 123.236C43.4627 132.495 43.4627 141.753 43.4627 151.012C43.4627 159.935 43.4627 168.861 43.4627 177.785C43.4627 179.965 43.4553 182.145 43.4627 184.328C43.4725 187.004 45.2058 188.921 47.9359 188.953C51.7928 188.997 55.6498 188.953 59.5068 188.953C67.5521 188.953 75.5975 188.953 83.6428 188.953C93.667 188.953 103.691 188.953 113.715 188.953C123.413 188.953 133.108 188.953 142.806 188.953C149.874 188.953 156.942 188.953 164.013 188.953C165.881 188.953 167.752 188.953 169.62 188.953C171.491 188.953 173.379 188.852 174.776 187.364C176.242 185.804 175.913 183.503 175.913 181.532C175.913 178.157 175.913 174.784 175.913 171.409C175.913 161.62 175.913 151.832 175.913 142.044C175.913 135.015 175.913 127.986 175.913 120.96C175.913 120.561 175.923 120.159 175.908 119.76C175.78 116.515 173.126 114.202 169.984 114.111C169.738 114.103 168.643 114.562 169.21 114.579C172.341 114.67 174.658 117.198 174.724 120.29C174.734 120.795 174.724 121.3 174.724 121.805C174.724 124.618 174.724 127.429 174.724 130.243C174.724 139.63 174.724 149.016 174.724 158.403C174.724 166.255 174.724 174.109 174.724 181.961C174.724 184.415 175.117 188.191 171.656 188.485C170.877 188.551 170.067 188.485 169.289 188.485C163.861 188.485 158.432 188.485 153.007 188.485C144.237 188.485 135.465 188.485 126.693 188.485C116.725 188.485 106.76 188.485 96.7923 188.485C87.7772 188.485 78.7621 188.485 69.747 188.485C63.8302 188.485 57.9134 188.485 51.9966 188.485C50.8722 188.485 49.7453 188.514 48.6209 188.485C46.5537 188.43 44.84 186.94 44.6583 184.831C44.6215 184.397 44.6461 183.949 44.6461 183.515C44.6461 177.026 44.6461 170.537 44.6461 164.047C44.6461 154.244 44.6461 144.441 44.6461 134.638C44.6461 128.149 44.6461 121.659 44.6461 115.17C44.6461 109.417 44.6141 103.662 44.6461 97.907C44.6583 95.8646 45.5888 93.9503 47.8721 93.7508C48.6724 93.6818 49.5096 93.7508 50.3124 93.7508C54.0933 93.7508 57.8766 93.7508 61.6574 93.7508C70.6234 93.7508 79.5919 93.7508 88.5579 93.7508C90.8706 93.7508 93.4215 93.3245 95.1351 95.2339C97.4871 97.8528 99.7016 100.607 101.982 103.29C104.612 106.385 107.244 109.481 109.873 112.576C110.872 113.751 112.002 114.527 113.61 114.581C114.135 114.598 114.663 114.581 115.188 114.581C122.905 114.581 130.619 114.581 138.335 114.581C147.122 114.581 155.906 114.581 164.693 114.581C166.198 114.581 167.703 114.581 169.208 114.581C169.453 114.579 170.546 114.111 169.984 114.111Z" fill="#718096"/>
<path d="M223.512 97.4315L189.231 166.151C188.397 167.824 186.364 168.499 184.692 167.659L122.99 136.663C121.319 135.823 120.639 133.786 121.473 132.113L126.816 121.403L129.811 115.525L162.368 50.2642C163.203 48.5913 165.235 47.9163 166.907 48.7564L215.459 73.1469L223.519 97.4143L223.512 97.4315Z" fill="#E2E8F0"/>
<path d="M126.742 121.551L129.663 115.818L161.418 52.1636C162.233 50.5327 164.18 49.8552 165.768 50.6534L211.895 73.8269L212.219 74.8468L206.201 86.9115C205.322 88.6731 206.034 90.8165 207.79 91.6985L217.414 96.5347C218.747 97.2048 219.287 98.8333 218.619 100.171L186.467 164.621C185.652 166.252 183.705 166.93 182.117 166.131L122.934 136.4C121.346 135.601 120.717 133.633 121.532 132L126.742 121.551Z" fill="white"/>
<path d="M223.021 97.3428C218.83 105.746 214.637 114.148 210.446 122.551C204.183 135.106 197.92 147.661 191.657 160.216C190.876 161.778 190.098 163.343 189.317 164.905C188.515 166.513 187.601 168.272 185.318 167.25C182.303 165.897 179.384 164.269 176.433 162.786C163.426 156.252 150.421 149.718 137.414 143.185C133.182 141.059 128.949 138.932 124.714 136.806C124.385 136.641 124.049 136.486 123.725 136.309C122.129 135.439 121.38 133.699 122.087 131.97C123.17 129.321 124.667 126.779 125.947 124.219C129.533 117.03 133.169 109.868 136.756 102.679C143.343 89.4738 149.93 76.2709 156.517 63.0655C158.533 59.0226 160.551 54.9797 162.567 50.9367C163.367 49.3329 164.364 47.8202 166.549 48.8254C167.799 49.3994 169.016 50.0646 170.246 50.683C182.635 56.9063 195.023 63.1295 207.412 69.3528C209.439 70.3703 211.465 71.3903 213.493 72.4078C214.342 72.834 214.892 72.9055 215.145 73.6692C217.185 79.8136 219.228 85.9606 221.268 92.105C221.688 93.3689 222.108 94.6352 222.528 95.8991C222.606 96.1405 223.073 97.2369 223.021 97.3428C222.928 97.5399 224.045 97.4512 224.192 97.1383C224.325 96.8575 223.821 95.904 223.733 95.6404C223.284 94.2903 222.837 92.9402 222.388 91.5876C221.17 87.9217 219.952 84.2532 218.734 80.5873C218.216 79.0302 217.701 77.4732 217.183 75.9161C216.878 75.0021 216.667 73.9525 216.243 73.0853C215.916 72.4177 215.015 72.2008 214.35 71.8682C202.15 65.7411 189.953 59.6114 177.754 53.4842C175.272 52.2376 172.792 50.991 170.31 49.7443C169.306 49.2393 168.307 48.6431 167.261 48.2292C164.97 47.3274 162.653 48.6209 161.624 50.683C160.946 52.038 160.271 53.3955 159.596 54.7505C153.289 67.3942 146.982 80.0354 140.675 92.679C136.417 101.213 132.207 109.775 127.876 118.272C126.764 120.455 125.662 122.642 124.569 124.835C123.7 126.574 122.833 128.316 121.964 130.056C121.473 131.039 120.744 132.133 120.636 133.249C120.427 135.434 122.023 136.429 123.663 137.252C125.357 138.105 127.054 138.955 128.748 139.807C141.821 146.375 154.897 152.943 167.97 159.512C172.765 161.921 177.56 164.328 182.355 166.738C183.273 167.198 184.287 167.859 185.313 168.029C187.552 168.401 189.298 167.09 190.238 165.203C195.475 154.702 200.714 144.202 205.951 133.704C211.696 122.192 217.438 110.676 223.183 99.1635C223.519 98.4909 223.856 97.8158 224.192 97.1432C224.285 96.9511 223.178 97.0324 223.021 97.3428Z" fill="#718096"/>
<path d="M215.521 72.9424L209.022 85.968C208.143 87.7295 208.855 89.8729 210.611 90.7549L223.591 97.2763L215.521 72.9424Z" fill="white"/>
<path d="M214.936 73.0483C212.879 77.175 210.819 81.3017 208.762 85.4259C207.682 87.589 207.964 89.8704 210.282 91.0702C212.427 92.1814 214.602 93.2407 216.763 94.3248C218.852 95.3743 220.944 96.4238 223.033 97.4758C223.2 97.5596 224.283 97.4068 224.185 97.1137C221.835 90.033 219.488 82.9499 217.139 75.8693C216.797 74.8394 216.456 73.8096 216.115 72.7798C216.026 72.5113 214.848 72.8586 214.929 73.0976C217.279 80.1783 219.626 87.2614 221.975 94.342C222.316 95.3718 222.658 96.4017 222.999 97.4315C223.382 97.3108 223.767 97.19 224.15 97.0693C220.112 95.0392 216.073 93.0116 212.032 90.9815C211.156 90.5405 210.299 90.1439 209.759 89.257C209.012 88.0325 209.194 86.707 209.793 85.485C210.871 83.285 211.98 81.0997 213.075 78.907C214.084 76.8818 215.096 74.8567 216.105 72.834C216.186 72.6739 215.089 72.7453 214.936 73.0483Z" fill="#718096"/>
<path d="M203.201 115.303C197.481 112.428 191.758 109.555 186.037 106.68C176.926 102.105 167.818 97.5276 158.707 92.9525C156.63 91.9079 154.551 90.8658 152.474 89.8212C151.953 89.56 151.118 90.3188 151.799 90.6613C157.519 93.5364 163.242 96.4091 168.962 99.2842C178.073 103.859 187.181 108.437 196.292 113.012C198.369 114.057 200.449 115.099 202.526 116.143C203.046 116.404 203.883 115.646 203.201 115.303Z" fill="#718096"/>
<path d="M206.648 109.058C200.928 106.183 195.205 103.31 189.484 100.435C180.374 95.8597 171.265 91.2821 162.154 86.7071C160.077 85.6625 157.998 84.6203 155.921 83.5757C155.616 83.423 154.679 83.9132 154.801 83.9773C160.522 86.8524 166.244 89.7251 171.965 92.6002C181.073 97.1753 190.184 101.753 199.295 106.328C201.372 107.372 203.451 108.415 205.529 109.459C205.833 109.61 206.771 109.119 206.648 109.058Z" fill="#718096"/>
<path d="M184.92 131.09C189.624 121.659 194.328 112.228 199.032 102.8C199.7 101.46 200.368 100.122 201.038 98.7816C201.281 98.2938 200.152 97.8134 199.901 98.316C195.197 107.747 190.493 117.178 185.789 126.607C185.122 127.947 184.454 129.285 183.784 130.625C183.541 131.113 184.67 131.593 184.92 131.09Z" fill="#718096"/>
<path d="M196.673 128.767C190.952 125.892 185.23 123.019 179.509 120.144C170.401 115.569 161.29 110.992 152.179 106.417C150.102 105.372 148.023 104.33 145.946 103.285C145.568 103.096 144.49 103.633 145.01 103.896C150.731 106.771 156.453 109.644 162.174 112.519C171.285 117.094 180.393 121.672 189.504 126.247C191.581 127.291 193.66 128.334 195.737 129.378C196.118 129.565 197.193 129.028 196.673 128.767Z" fill="#718096"/>
<path d="M199.769 122.197C194.049 119.321 188.326 116.449 182.605 113.574C173.494 108.999 164.386 104.421 155.275 99.8459C153.198 98.8013 151.119 97.7592 149.042 96.7146C148.538 96.4608 147.684 97.195 148.362 97.535C154.082 100.41 159.805 103.283 165.525 106.158C174.634 110.733 183.744 115.311 192.855 119.886C194.932 120.93 197.012 121.972 199.089 123.017C199.595 123.271 200.447 122.537 199.769 122.197Z" fill="#718096"/>
<path d="M141.706 110.366C147.431 113.241 153.156 116.119 158.882 118.994C168.019 123.584 177.16 128.176 186.298 132.766C188.412 133.828 190.528 134.89 192.642 135.954C192.946 136.107 193.405 135.905 193.55 135.616C198.32 126.052 203.093 116.486 207.863 106.922C208.536 105.572 209.209 104.224 209.881 102.874C209.992 102.652 209.835 102.472 209.651 102.379C203.925 99.5035 198.2 96.6259 192.475 93.7508C183.337 89.1609 174.197 84.5686 165.059 79.9788C162.945 78.9169 160.829 77.8551 158.715 76.7907C158.41 76.638 157.951 76.84 157.806 77.1283C153.036 86.6923 148.263 96.2588 143.493 105.823C142.82 107.173 142.148 108.521 141.475 109.871C141.168 110.487 142.366 110.524 142.614 110.028C147.384 100.464 152.157 90.8978 156.927 81.3338C157.6 79.9837 158.273 78.636 158.945 77.2859C158.643 77.3993 158.339 77.5101 158.037 77.6235C163.762 80.4986 169.488 83.3762 175.213 86.2513C184.351 90.8412 193.491 95.4335 202.629 100.023C204.743 101.085 206.859 102.147 208.973 103.211C208.897 103.046 208.818 102.881 208.742 102.716C203.972 112.28 199.199 121.847 194.429 131.411C193.756 132.761 193.084 134.109 192.411 135.459C192.713 135.345 193.017 135.234 193.319 135.121C187.594 132.246 181.869 129.368 176.143 126.493C167.006 121.903 157.865 117.311 148.727 112.721C146.613 111.659 144.497 110.598 142.383 109.533C141.87 109.277 141.026 110.023 141.706 110.366Z" fill="#718096"/>
<path d="M182.956 122.575L176.366 135.787L189.531 142.4L196.121 129.188L182.956 122.575Z" fill="white"/>
<path d="M184.105 126.042L178.743 136.791L189.454 142.171L194.816 131.422L184.105 126.042Z" fill="url(#paint0_linear)"/>
<path d="M190.005 142.096C185.615 139.891 181.228 137.686 176.838 135.483C176.868 135.594 176.897 135.705 176.926 135.813C179.124 131.408 181.321 127.006 183.516 122.601C183.175 122.692 182.833 122.783 182.492 122.877C186.882 125.082 191.269 127.287 195.659 129.489C195.629 129.378 195.6 129.267 195.57 129.159C193.373 133.564 191.176 137.967 188.981 142.372C188.713 142.906 189.902 142.81 190.093 142.428C192.29 138.023 194.488 133.621 196.683 129.216C196.746 129.088 196.734 128.954 196.594 128.885C192.205 126.68 187.817 124.475 183.428 122.273C183.14 122.128 182.561 122.236 182.404 122.549C180.207 126.954 178.009 131.357 175.814 135.762C175.75 135.89 175.763 136.023 175.903 136.092C180.292 138.297 184.68 140.502 189.069 142.704C189.445 142.889 190.523 142.355 190.005 142.096Z" fill="#718096"/>
<path d="M187.604 65.071L170.899 140.071C170.492 141.896 168.682 143.044 166.858 142.635L99.5199 127.53C97.6958 127.121 96.5443 125.308 96.9519 123.483L99.5543 111.795L101.045 105.365L116.909 34.1418C117.317 32.3162 119.126 31.1682 120.95 31.5771L173.939 43.462L187.606 65.0537L187.604 65.071Z" fill="#E2E8F0"/>
<path d="M99.5175 111.957L100.971 105.685L116.445 36.2137C116.843 34.4325 118.569 33.3041 120.302 33.6934L170.644 44.9845L171.204 45.896L168.27 59.062C167.843 60.9837 169.048 62.8906 170.963 63.3217L181.469 65.677C182.924 66.0022 183.84 67.4509 183.514 68.9118L167.845 139.253C167.448 141.034 165.722 142.162 163.988 141.773L99.3972 127.284C97.6639 126.895 96.5787 125.136 96.9764 123.354L99.5175 111.957Z" fill="white"/>
<path d="M187.105 65.1055C185.063 74.2753 183.02 83.4476 180.978 92.6175C177.926 106.321 174.874 120.021 171.822 133.724C171.442 135.429 171.061 137.136 170.683 138.841C170.293 140.595 169.829 142.527 167.369 142.086C164.118 141.507 160.892 140.632 157.671 139.91C143.476 136.727 129.283 133.542 115.088 130.359C110.467 129.322 105.849 128.287 101.229 127.25C100.87 127.168 100.504 127.099 100.148 127.008C98.3905 126.552 97.244 125.047 97.5141 123.194C97.9265 120.361 98.7686 117.53 99.3898 114.736C101.138 106.892 102.94 99.0576 104.688 91.2132C107.897 76.8031 111.108 62.3905 114.317 47.9803C115.299 43.5679 116.283 39.1554 117.265 34.7429C117.656 32.9937 118.257 31.2839 120.619 31.7274C121.972 31.9811 123.312 32.331 124.653 32.6316C138.173 35.6644 151.693 38.6972 165.213 41.73C167.425 42.2252 169.637 42.7228 171.849 43.218C172.778 43.425 173.327 43.3609 173.757 44.0409C177.219 49.5078 180.68 54.9772 184.14 60.4441C184.852 61.5701 185.564 62.696 186.276 63.8194C186.413 64.0387 187.128 64.9897 187.105 65.1055C187.064 65.3173 188.124 64.9626 188.193 64.6226C188.254 64.3171 187.535 63.5164 187.385 63.2799C186.624 62.0776 185.863 60.8753 185.102 59.6755C183.037 56.4136 180.973 53.1492 178.905 49.8872C178.029 48.5026 177.152 47.1156 176.274 45.731C175.76 44.918 175.299 43.9497 174.68 43.2131C174.201 42.644 173.276 42.6538 172.549 42.4912C159.235 39.5052 145.921 36.5193 132.61 33.5333C129.902 32.9247 127.194 32.3187 124.486 31.7101C123.391 31.4638 122.276 31.1262 121.162 30.9809C118.721 30.6631 116.787 32.4788 116.283 34.7282C115.954 36.2088 115.625 37.687 115.294 39.1677C112.22 52.9644 109.146 66.7635 106.075 80.5602C104 89.8754 101.98 99.2029 99.8243 108.498C99.2695 110.888 98.7293 113.278 98.1966 115.67C97.7743 117.57 97.3496 119.469 96.9273 121.369C96.6892 122.443 96.2423 123.68 96.4093 124.788C96.7309 126.959 98.5231 127.538 100.31 127.939C102.159 128.353 104.01 128.77 105.859 129.184C120.128 132.384 134.397 135.584 148.666 138.785C153.898 139.957 159.132 141.132 164.364 142.305C165.366 142.529 166.507 142.924 167.546 142.84C169.809 142.657 171.184 140.962 171.643 138.903C174.197 127.444 176.747 115.986 179.301 104.524C182.1 91.9597 184.898 79.3924 187.697 66.8276C187.862 66.0934 188.024 65.3567 188.188 64.6226C188.237 64.4181 187.182 64.7655 187.105 65.1055Z" fill="#718096"/>
<path d="M173.949 43.2501L170.782 57.4655C170.354 59.3872 171.56 61.2941 173.475 61.7253L187.641 64.9034L173.949 43.2501Z" fill="white"/>
<path d="M173.406 43.494C172.402 47.9976 171.4 52.5012 170.396 57.0049C169.871 59.3675 170.693 61.5109 173.229 62.1121C175.579 62.6689 177.946 63.169 180.302 63.6987C182.583 64.2111 184.866 64.7211 187.147 65.2336C187.331 65.2755 188.343 64.864 188.178 64.6029C184.194 58.3008 180.209 52.0011 176.222 45.699C175.643 44.7825 175.063 43.866 174.484 42.9495C174.332 42.7105 173.273 43.3314 173.411 43.5457C177.396 49.8478 181.38 56.1475 185.367 62.4496C185.947 63.3661 186.526 64.2826 187.106 65.1991C187.449 64.9897 187.793 64.7803 188.137 64.5684C183.727 63.5804 179.32 62.59 174.911 61.6021C173.956 61.3878 173.028 61.2104 172.289 60.4811C171.27 59.4735 171.128 58.1455 171.413 56.8127C171.928 54.4155 172.478 52.0257 173.011 49.6335C173.502 47.4236 173.995 45.2136 174.486 43.0037C174.528 42.8263 173.48 43.1638 173.406 43.494Z" fill="#718096"/>
<path d="M172.201 87.3403C165.957 85.9409 159.712 84.5391 153.468 83.1397C143.525 80.91 133.584 78.6804 123.641 76.4508C121.373 75.9432 119.104 75.4332 116.838 74.9257C116.271 74.7976 115.643 75.7363 116.387 75.9038C122.63 77.3032 128.876 78.705 135.119 80.1044C145.062 82.3341 155.003 84.5637 164.946 86.7933C167.214 87.3009 169.483 87.8108 171.749 88.3184C172.316 88.4465 172.945 87.5078 172.201 87.3403Z" fill="#718096"/>
<path d="M174.04 80.4444C167.796 79.045 161.55 77.6431 155.307 76.2438C145.364 74.0141 135.423 71.7845 125.48 69.5549C123.212 69.0473 120.943 68.5374 118.677 68.0298C118.346 67.9559 117.553 68.6605 117.688 68.6901C123.931 70.0895 130.177 71.4913 136.42 72.8907C146.363 75.1203 156.304 77.35 166.247 79.5796C168.516 80.0871 170.784 80.5971 173.05 81.1046C173.382 81.1785 174.175 80.4739 174.04 80.4444Z" fill="#718096"/>
<path d="M158.266 107.097C160.559 96.8058 162.849 86.5125 165.142 76.2217C165.469 74.7607 165.793 73.2972 166.119 71.8363C166.237 71.3041 165.027 71.112 164.904 71.6614C162.611 81.9522 160.32 92.2455 158.027 102.536C157.701 103.997 157.377 105.461 157.05 106.922C156.932 107.451 158.145 107.644 158.266 107.097Z" fill="#718096"/>
<path d="M169.11 101.989C162.866 100.59 156.621 99.1882 150.377 97.7888C140.434 95.5592 130.494 93.3295 120.55 91.0999C118.282 90.5924 116.013 90.0824 113.747 89.5749C113.335 89.4812 112.419 90.2672 112.989 90.3928C119.232 91.7922 125.478 93.194 131.721 94.5934C141.664 96.823 151.605 99.0527 161.548 101.282C163.817 101.79 166.085 102.3 168.351 102.807C168.764 102.901 169.679 102.117 169.11 101.989Z" fill="#718096"/>
<path d="M170.531 94.8619C164.288 93.4625 158.042 92.0607 151.799 90.6613C141.856 88.4317 131.915 86.202 121.972 83.9724C119.703 83.4649 117.435 82.9549 115.169 82.4474C114.619 82.3242 113.968 83.2431 114.707 83.4082C120.95 84.8076 127.196 86.2094 133.44 87.6088C143.383 89.8384 153.323 92.0681 163.266 94.2977C165.535 94.8052 167.803 95.3152 170.07 95.8227C170.619 95.9459 171.27 95.027 170.531 94.8619Z" fill="#718096"/>
<path d="M111.339 97.4734C117.587 98.8753 123.835 100.277 130.086 101.676C140.059 103.914 150.034 106.151 160.006 108.388C162.314 108.905 164.622 109.422 166.93 109.94C167.261 110.014 167.659 109.706 167.73 109.393C170.055 98.9541 172.38 88.5154 174.705 78.0743C175.034 76.601 175.36 75.1302 175.689 73.6569C175.743 73.4155 175.547 73.2775 175.346 73.2332C169.097 71.8313 162.849 70.4295 156.599 69.0301C146.626 66.7931 136.651 64.5561 126.678 62.319C124.37 61.8016 122.063 61.2843 119.755 60.7669C119.423 60.693 119.026 61.0009 118.955 61.3138C116.63 71.7525 114.305 82.1911 111.98 92.6323C111.651 94.1055 111.324 95.5764 110.995 97.0497C110.845 97.7223 112.019 97.466 112.139 96.9265C114.464 86.4878 116.789 76.0492 119.114 65.608C119.443 64.1348 119.77 62.6639 120.099 61.1907C119.831 61.373 119.566 61.5553 119.298 61.7376C125.546 63.1394 131.795 64.5413 138.045 65.9406C148.018 68.1777 157.993 70.4147 167.966 72.6517C170.273 73.1691 172.581 73.6865 174.889 74.2039C174.774 74.0634 174.661 73.9205 174.545 73.7801C172.22 84.2188 169.895 94.6574 167.57 105.099C167.241 106.572 166.915 108.043 166.586 109.516C166.853 109.334 167.119 109.151 167.386 108.969C161.138 107.567 154.89 106.165 148.639 104.766C138.667 102.529 128.691 100.292 118.719 98.0548C116.411 97.5375 114.103 97.0201 111.795 96.5027C111.236 96.3771 110.597 97.3059 111.339 97.4734Z" fill="#718096"/>
<path d="M154.31 99.3106L151.099 113.729L165.468 116.952L168.679 102.533L154.31 99.3106Z" fill="white"/>
<path d="M156.262 102.395L153.65 114.126L165.34 116.747L167.952 105.017L156.262 102.395Z" fill="url(#paint1_linear)"/>
<path d="M165.852 116.54C161.062 115.466 156.272 114.392 151.482 113.317C151.536 113.418 151.593 113.517 151.647 113.618C152.717 108.811 153.788 104.005 154.858 99.198C154.549 99.3704 154.239 99.5429 153.93 99.7129C158.72 100.787 163.51 101.861 168.3 102.935C168.246 102.834 168.189 102.736 168.135 102.635C167.065 107.441 165.994 112.248 164.924 117.055C164.794 117.639 165.923 117.257 166.016 116.838C167.087 112.031 168.157 107.225 169.228 102.418C169.26 102.278 169.215 102.152 169.063 102.117C164.273 101.043 159.483 99.9691 154.694 98.895C154.379 98.8235 153.842 99.0699 153.765 99.4099C152.695 104.217 151.625 109.023 150.554 113.83C150.522 113.97 150.566 114.096 150.719 114.13C155.509 115.205 160.299 116.279 165.088 117.353C165.501 117.447 166.417 116.668 165.852 116.54Z" fill="#718096"/>
<path d="M129.676 65.2804L149.798 139.43C150.289 141.236 149.221 143.098 147.416 143.591L80.8389 161.783C79.0344 162.276 77.1735 161.212 76.6849 159.408L73.5498 147.851L71.8754 141.468L52.7698 71.0528C52.2788 69.2469 53.3468 67.3844 55.1513 66.8916L107.541 52.5751L129.673 65.2656L129.676 65.2804Z" fill="#E2E8F0"/>
<path d="M73.594 148.016L71.9614 141.79L53.3223 73.1051C52.8435 71.3435 53.8477 69.5376 55.5613 69.0695L105.334 55.47L106.252 56.012L109.785 69.0301C110.3 70.9321 112.254 72.0531 114.147 71.5357L124.532 68.6975C125.971 68.3033 127.456 69.1558 127.847 70.5995L146.719 140.145C147.198 141.906 146.194 143.712 144.48 144.18L80.6205 161.63C78.9068 162.098 77.1294 161.051 76.6506 159.29L73.594 148.016Z" fill="white"/>
<path d="M129.251 65.5465C131.711 74.6129 134.171 83.6792 136.631 92.7481C140.306 106.296 143.984 119.841 147.659 133.389C148.116 135.077 148.575 136.762 149.032 138.45C149.503 140.184 149.992 142.108 147.61 142.872C144.465 143.882 141.207 144.621 138.023 145.491C123.99 149.327 109.956 153.16 95.9231 156.996C91.3566 158.245 86.7877 159.492 82.2212 160.741C81.8652 160.837 81.5117 160.948 81.1532 161.032C79.388 161.453 77.6719 160.657 77.0483 158.896C76.0957 156.195 75.5213 153.298 74.7724 150.536C72.6684 142.781 70.6184 135.008 68.5119 127.252C64.6452 113.005 60.7784 98.757 56.9141 84.5095C55.7307 80.1463 54.5473 75.7856 53.364 71.4224C52.8951 69.6929 52.6324 67.8969 54.9279 67.1848C56.2414 66.7759 57.5892 66.4581 58.9174 66.0959C72.2854 62.4422 85.651 58.7911 99.019 55.1374C101.206 54.5387 103.394 53.9425 105.581 53.3438C106.5 53.0925 106.954 52.7772 107.651 53.1763C113.256 56.389 118.861 59.6041 124.464 62.8167C125.618 63.477 126.771 64.1397 127.925 64.8C128.144 64.9256 129.219 65.4307 129.251 65.5465C129.312 65.7559 130.086 64.9429 129.988 64.6103C129.899 64.3122 128.89 63.9402 128.65 63.7997C127.417 63.0927 126.187 62.388 124.955 61.681C121.611 59.7642 118.267 57.845 114.921 55.9282C113.502 55.1128 112.08 54.2997 110.661 53.4843C109.829 53.0063 108.97 52.3658 108.081 52.0036C107.393 51.7252 106.578 52.1662 105.861 52.3633C92.6996 55.9603 79.5353 59.5573 66.3736 63.1542C63.6975 63.886 61.019 64.6177 58.3429 65.3494C57.2602 65.645 56.1186 65.8668 55.0629 66.261C52.7576 67.1208 51.8885 69.6362 52.4924 71.8609C52.8902 73.3244 53.2854 74.7878 53.6832 76.2488C57.3854 89.8902 61.0877 103.532 64.7876 117.173C67.2869 126.382 69.8377 135.577 72.2584 144.808C72.8796 147.181 73.513 149.548 74.1562 151.914C74.6669 153.791 75.1751 155.668 75.6857 157.546C75.973 158.607 76.1571 159.911 76.8175 160.812C78.1138 162.581 79.965 162.254 81.7327 161.771C83.5617 161.271 85.3908 160.771 87.2198 160.27C101.327 156.415 115.434 152.562 129.541 148.706C134.714 147.292 139.889 145.878 145.062 144.463C146.054 144.192 147.247 144.005 148.126 143.446C150.043 142.224 150.47 140.08 149.918 138.043C146.844 126.713 143.771 115.384 140.694 104.054C137.323 91.6296 133.953 79.2077 130.582 66.7833C130.385 66.0565 130.186 65.3297 129.99 64.6029C129.934 64.4083 129.16 65.209 129.251 65.5465Z" fill="#718096"/>
<path d="M107.447 52.383L111.26 66.4383C111.776 68.3403 113.73 69.4613 115.623 68.9439L129.629 65.1178L107.447 52.383Z" fill="white"/>
<path d="M107.082 52.8511C108.29 57.303 109.497 61.7549 110.705 66.2068C111.339 68.5423 113.065 70.0526 115.589 69.3948C117.926 68.7862 120.251 68.121 122.581 67.4829C124.837 66.867 127.091 66.2511 129.347 65.6327C129.529 65.5834 130.231 64.7458 129.966 64.593C123.509 60.8876 117.054 57.1822 110.597 53.4769C109.659 52.9373 108.719 52.4002 107.781 51.8607C107.536 51.7202 106.89 52.7648 107.109 52.893C113.566 56.5984 120.02 60.3037 126.477 64.0091C127.415 64.5487 128.355 65.0858 129.293 65.6253C129.499 65.2779 129.705 64.933 129.912 64.5856C125.554 65.7756 121.196 66.968 116.836 68.158C115.891 68.4167 114.987 68.6926 113.995 68.3945C112.625 67.9806 111.881 66.8719 111.513 65.5588C110.853 63.1986 110.229 60.826 109.586 58.4609C108.994 56.2756 108.4 54.0928 107.808 51.9075C107.764 51.7375 106.993 52.5259 107.082 52.8511Z" fill="#718096"/>
<path d="M126.415 92.1913C120.241 93.8789 114.069 95.5665 107.894 97.2517C98.064 99.9371 88.2363 102.625 78.4061 105.31C76.1646 105.924 73.9206 106.535 71.6791 107.148C71.1194 107.301 70.9991 108.427 71.7356 108.225C77.9102 106.537 84.0823 104.85 90.2568 103.165C100.087 100.479 109.915 97.7912 119.745 95.1058C121.986 94.4924 124.23 93.8814 126.472 93.2679C127.032 93.1152 127.152 91.9917 126.415 92.1913Z" fill="#718096"/>
<path d="M124.834 85.2314C118.66 86.919 112.488 88.6066 106.313 90.2918C96.4828 92.9772 86.6551 95.6651 76.8249 98.3505C74.5834 98.9639 72.3394 99.5749 70.0979 100.188C69.7689 100.277 69.3982 101.272 69.5308 101.235C75.7053 99.5478 81.8774 97.8602 88.052 96.175C97.8822 93.4896 107.71 90.8017 117.54 88.1163C119.782 87.5029 122.026 86.8919 124.267 86.2784C124.596 86.1897 124.967 85.1944 124.834 85.2314Z" fill="#718096"/>
<path d="M123.285 116.19C120.523 106.015 117.761 95.84 115.002 85.6649C114.609 84.2187 114.216 82.775 113.826 81.3288C113.683 80.8016 112.522 81.2007 112.669 81.7427C115.431 91.9178 118.193 102.093 120.953 112.268C121.346 113.714 121.739 115.158 122.129 116.604C122.271 117.129 123.433 116.732 123.285 116.19Z" fill="#718096"/>
<path d="M130.498 106.594C124.324 108.282 118.152 109.969 111.977 111.654C102.147 114.34 92.319 117.028 82.4888 119.713C80.2473 120.327 78.0033 120.938 75.7618 121.551C75.3518 121.662 74.9074 122.785 75.4721 122.63C81.6467 120.942 87.8188 119.255 93.9934 117.57C103.824 114.884 113.651 112.196 123.482 109.511C125.723 108.898 127.967 108.287 130.209 107.673C130.616 107.562 131.06 106.439 130.498 106.594Z" fill="#718096"/>
<path d="M128.441 99.6242C122.266 101.312 116.094 102.999 109.92 104.685C100.089 107.37 90.2616 110.058 80.4314 112.743C78.1899 113.357 75.9459 113.968 73.7044 114.581C73.1619 114.729 73.0121 115.848 73.7437 115.648C79.9183 113.96 86.0904 112.273 92.265 110.588C102.095 107.902 111.923 105.214 121.753 102.529C123.995 101.915 126.239 101.304 128.48 100.691C129.023 100.543 129.172 99.4247 128.441 99.6242Z" fill="#718096"/>
<path d="M77.3086 129.666C83.4856 127.979 89.6651 126.289 95.8421 124.601C105.702 121.906 115.564 119.211 125.424 116.518C127.704 115.894 129.988 115.271 132.268 114.648C132.597 114.559 132.806 114.098 132.72 113.788C129.919 103.468 127.118 93.1472 124.316 82.8268C123.921 81.3707 123.526 79.9147 123.13 78.4586C123.067 78.2197 122.829 78.1901 122.63 78.2443C116.453 79.9319 110.273 81.622 104.096 83.3096C94.2364 86.0049 84.3743 88.7002 74.5147 91.393C72.2339 92.0163 69.9506 92.6396 67.6698 93.2629C67.3409 93.3516 67.1322 93.8124 67.2181 94.1228C70.0194 104.443 72.8206 114.764 75.6219 125.084C76.0172 126.54 76.4124 127.996 76.8077 129.452C76.9869 130.117 77.9051 129.341 77.7603 128.807C74.959 118.486 72.1578 108.166 69.3565 97.8454C68.9612 96.3894 68.566 94.9333 68.1707 93.4773C68.0209 93.7631 67.8687 94.0489 67.7189 94.3371C73.896 92.6495 80.0754 90.9594 86.2525 89.2718C96.1121 86.5765 105.974 83.8812 115.834 81.1884C118.115 80.5651 120.398 79.9418 122.679 79.3185C122.512 79.247 122.345 79.1756 122.178 79.1041C124.979 89.4245 127.78 99.7449 130.582 110.065C130.977 111.521 131.372 112.977 131.768 114.433C131.917 114.148 132.069 113.862 132.219 113.574C126.042 115.261 119.863 116.951 113.686 118.639C103.826 121.334 93.9639 124.029 84.1043 126.722C81.8235 127.346 79.5402 127.969 77.2595 128.592C76.7095 128.745 76.5769 129.866 77.3086 129.666Z" fill="#718096"/>
<path d="M130.381 107.271L116.174 111.153L120.044 125.41L134.25 121.527L130.381 107.271Z" fill="white"/>
<path d="M130.893 109.809L119.335 112.968L122.483 124.567L134.041 121.408L130.893 109.809Z" fill="#00B6F3"/>
<path d="M134.387 120.987C129.651 122.28 124.915 123.576 120.182 124.87C120.278 124.931 120.373 124.995 120.467 125.057C119.178 120.304 117.886 115.552 116.597 110.802C116.403 111.098 116.212 111.396 116.018 111.691C120.754 110.398 125.49 109.102 130.223 107.809C130.127 107.747 130.032 107.683 129.938 107.621C131.227 112.374 132.519 117.124 133.808 121.876C133.965 122.455 134.785 121.586 134.674 121.174C133.385 116.422 132.094 111.669 130.805 106.919C130.768 106.781 130.67 106.69 130.52 106.732C125.784 108.025 121.048 109.321 116.315 110.615C116.003 110.698 115.642 111.167 115.736 111.504C117.025 116.257 118.316 121.009 119.605 125.759C119.642 125.897 119.74 125.988 119.89 125.946C124.626 124.653 129.361 123.357 134.095 122.063C134.498 121.955 134.947 120.834 134.387 120.987Z" fill="#718096"/>
<path d="M172.063 188.714H47.3072C45.5101 188.714 44.0518 187.253 44.0518 185.447V115.798C44.0518 113.995 45.5076 112.532 47.3072 112.532H172.061C173.858 112.532 175.316 113.993 175.316 115.798V185.447C175.316 187.253 173.86 188.714 172.063 188.714Z" fill="#EDF2F7"/>
<path d="M169.232 188.714H47.3072C45.5101 188.714 44.0518 187.253 44.0518 185.447V118.674C44.0518 116.87 45.5076 115.407 47.3072 115.407H169.23C171.027 115.407 172.485 116.868 172.485 118.674V185.449C172.485 187.253 171.029 188.714 169.232 188.714Z" fill="white"/>
<path d="M172.294 188.379C169.618 188.379 166.942 188.379 164.266 188.379C157.467 188.379 150.669 188.379 143.871 188.379C134.797 188.379 125.723 188.379 116.649 188.379C107.145 188.379 97.6416 188.379 88.1355 188.379C80.0459 188.379 71.9588 188.379 63.8693 188.379C59.0426 188.379 54.2159 188.379 49.3891 188.379C48.2672 188.379 46.9807 188.544 46.0085 187.886C44.2801 186.718 44.6459 184.39 44.6459 182.574C44.6459 175.425 44.6459 168.277 44.6459 161.128C44.6459 151.756 44.6459 142.384 44.6459 133.012C44.6459 127.38 44.6115 121.746 44.6459 116.114C44.6557 114.579 45.3088 113.014 47.0764 112.874C47.2679 112.859 47.4668 112.874 47.6583 112.874C49.0454 112.874 50.435 112.874 51.8221 112.874C57.7929 112.874 63.7662 112.874 69.737 112.874C78.4305 112.874 87.124 112.874 95.8175 112.874C105.348 112.874 114.876 112.874 124.407 112.874C133.015 112.874 141.622 112.874 150.23 112.874C156.029 112.874 161.83 112.874 167.629 112.874C168.898 112.874 170.17 112.854 171.439 112.874C173.573 112.906 174.724 114.47 174.724 116.503C174.724 122.221 174.724 127.939 174.724 133.655C174.724 143.037 174.724 152.419 174.724 161.8C174.724 168.884 174.724 175.964 174.724 183.047C174.724 184.996 175.127 188.233 172.294 188.379C171.857 188.401 171.039 189.093 171.832 189.054C174.02 188.943 175.834 187.551 175.91 185.25C175.925 184.794 175.91 184.333 175.91 183.878C175.91 181.303 175.91 178.726 175.91 176.151C175.91 167.262 175.91 158.373 175.91 149.487C175.91 140.78 175.91 132.074 175.91 123.367C175.91 121.083 175.91 118.797 175.91 116.513C175.91 116.01 175.942 115.483 175.844 114.988C175.493 113.231 173.89 112.243 172.2 112.201C168.908 112.12 165.604 112.201 162.311 112.201C154.953 112.201 147.595 112.201 140.238 112.201C130.825 112.201 121.412 112.201 111.999 112.201C102.412 112.201 92.8223 112.201 83.2351 112.201C75.4991 112.201 67.7655 112.201 60.0295 112.201C56.0424 112.201 52.0529 112.201 48.0658 112.201C45.7237 112.201 43.5386 113.411 43.4601 116.02C43.4134 117.548 43.4601 119.082 43.4601 120.61C43.4601 128.629 43.4601 136.651 43.4601 144.67C43.4601 154.008 43.4601 163.345 43.4601 172.683C43.4601 175.851 43.4601 179.019 43.4601 182.19C43.4601 183.538 43.1974 185.265 43.6074 186.583C44.285 188.77 46.3129 189.056 48.223 189.056C49.9293 189.056 51.6355 189.056 53.3418 189.056C59.8675 189.056 66.3931 189.056 72.9188 189.056C82.0419 189.056 91.1651 189.056 100.286 189.056C109.981 189.056 119.676 189.056 129.371 189.056C137.76 189.056 146.152 189.056 154.541 189.056C159.621 189.056 164.698 189.056 169.777 189.056C170.462 189.056 171.145 189.056 171.83 189.056C172.277 189.051 173.089 188.379 172.294 188.379Z" fill="#718096"/>
<path d="M121.483 142.749H93.5662V162.855H121.483V142.749Z" fill="#EDF2F7"/>
<path d="M97.1728 156.592C105.115 156.592 113.06 156.592 121.002 156.592C122.141 156.592 123.283 156.592 124.422 156.592C124.903 156.592 125.667 155.863 124.869 155.863C116.927 155.863 108.982 155.863 101.04 155.863C99.9004 155.863 98.7588 155.863 97.6196 155.863C97.1384 155.863 96.3749 156.592 97.1728 156.592Z" fill="#718096"/>
<path d="M97.1728 151.648C105.115 151.648 113.06 151.648 121.002 151.648C122.141 151.648 123.283 151.648 124.422 151.648C124.896 151.648 125.669 150.928 124.871 150.928C116.929 150.928 108.984 150.928 101.042 150.928C99.9029 150.928 98.7612 150.928 97.6221 150.928C97.1482 150.928 96.3724 151.648 97.1728 151.648Z" fill="#718096"/>
<path d="M97.1515 145.382C105.094 145.382 113.038 145.382 120.981 145.382C122.12 145.382 123.261 145.382 124.401 145.382C124.771 145.382 125.682 144.826 124.894 144.826C116.952 144.826 109.007 144.826 101.065 144.826C99.9258 144.826 98.7842 144.826 97.645 144.826C97.2718 144.823 96.361 145.382 97.1515 145.382Z" fill="#718096"/>
<path d="M97.3472 161.394C99.3628 161.394 101.381 161.394 103.397 161.394C104.079 161.394 104.3 160.504 103.497 160.504C101.482 160.504 99.4635 160.504 97.4479 160.504C96.7629 160.504 96.5419 161.394 97.3472 161.394Z" fill="#718096"/>
<path d="M107.953 161.414C109.969 161.414 111.987 161.414 114.003 161.414C114.7 161.414 114.894 160.482 114.091 160.482C112.075 160.482 110.057 160.482 108.042 160.482C107.342 160.482 107.15 161.414 107.953 161.414Z" fill="#718096"/>
<defs>
<linearGradient id="paint0_linear" x1="181.424" y1="131.416" x2="192.15" y2="136.767" gradientUnits="userSpaceOnUse">
<stop stop-color="#FEA6D0"/>
<stop offset="1" stop-color="#FF7EBC"/>
</linearGradient>
<linearGradient id="paint1_linear" x1="154.956" y1="108.26" x2="166.65" y2="110.864" gradientUnits="userSpaceOnUse">
<stop stop-color="#00B6F3"/>
<stop offset="1" stop-color="#008DF3"/>
</linearGradient>
</defs>
</svg>
