<svg width="56" height="56" viewBox="0 0 56 56" fill="none" xmlns="http://www.w3.org/2000/svg">
<rect width="56" height="56" rx="23" fill="url(#paint0_linear_9749_33737)"/>
<mask id="mask0_9749_33737" style="mask-type:alpha" maskUnits="userSpaceOnUse" x="0" y="0" width="57" height="56">
<rect x="0.000549316" width="56" height="56" rx="23" fill="url(#paint1_linear_9749_33737)"/>
</mask>
<g mask="url(#mask0_9749_33737)">
<rect opacity="0.7" width="12.1438" height="1.28791" rx="0.643954" transform="matrix(0.986161 -0.165791 0.165789 0.986161 27.8383 18.6036)" fill="white"/>
<rect opacity="0.7" width="13.7957" height="1.28791" rx="0.643954" transform="matrix(0.986161 -0.165791 0.165789 0.986161 0.121841 41.9475)" fill="white"/>
<rect opacity="0.7" width="6.37089" height="1.28791" rx="0.643955" transform="matrix(0.986161 -0.165791 0.165789 0.986161 8.07407 36.876)" fill="white"/>
<g filter="url(#filter0_d_9749_33737)">
<path d="M27.0896 40.1456L25.202 39.7272C24.4817 39.5676 24.0266 38.8532 24.1862 38.133L24.2087 38.0314C24.3684 37.3111 25.0827 36.8559 25.803 37.0156L27.6905 37.4339C28.4108 37.5935 28.866 38.3079 28.7063 39.0282L28.6838 39.1298C28.5242 39.85 27.8121 40.3057 27.0896 40.1456Z" fill="#FF91BC"/>
<path d="M27.5495 40.1002C28.0333 40.2074 28.553 39.7192 28.7102 39.0097C28.8675 38.3001 28.6027 37.638 28.1189 37.5308C27.6351 37.4236 27.1154 37.9118 26.9581 38.6213C26.8009 39.3309 27.0656 39.993 27.5495 40.1002Z" fill="white"/>
<path d="M31.8718 36.1122L29.9612 35.819C29.2327 35.7073 28.7324 35.0255 28.8446 34.2948L28.8604 34.1917C28.9721 33.4632 29.6538 32.9629 30.3846 33.0751L32.2952 33.3682C33.0237 33.4799 33.524 34.1617 33.4118 34.8925L33.396 34.9956C33.2843 35.7241 32.6026 36.2244 31.8718 36.1122Z" fill="#FFBDD7"/>
<path d="M32.3286 36.0336C32.8184 36.1089 33.3049 35.5876 33.4153 34.8693C33.5257 34.1511 33.2181 33.5078 32.7283 33.4325C32.2385 33.3573 31.752 33.8785 31.6416 34.5968C31.5312 35.3151 31.8388 35.9584 32.3286 36.0336Z" fill="white"/>
<path d="M51.9124 26.9241C51.3316 28.1124 48.9328 29.4876 43.9363 31.2014C39.6493 32.6745 23.3421 32.9451 14.8964 32.9825C11.7973 32.9968 9.75669 32.9804 9.75669 32.9804C4.56713 35.2981 -3.44617 33.9935 -3.44617 33.9935L3.49571 31.5928L-2.20206 20.5565L3.24968 19.6637L10.5051 26.5256C14.3594 25.4872 31.1004 22.7356 38.0156 21.6413C42.4541 20.9384 46.0174 22.1427 48.1221 23.1634C49.059 23.6174 49.7076 24.0359 50.0165 24.2347C50.0958 24.2831 50.1518 24.3191 50.1854 24.3384C50.6536 24.5985 52.0332 25.0109 52.0563 26.3283C52.0604 26.5234 52.0118 26.7211 51.9124 26.9241Z" fill="url(#paint2_linear_9749_33737)"/>
<path d="M51.7374 26.7697C51.1582 27.9548 48.7659 29.3263 43.7828 31.0355C39.5073 32.5046 23.2438 32.7745 14.8208 32.8118C22.0247 32.2208 36.1282 31.0376 39.1642 30.5883C41.9338 30.1792 48.0377 28.0924 51.7374 26.7697Z" fill="#FFCDE1"/>
<path d="M21.0177 32.7957L13.1641 44.782C13.1641 44.782 16.9135 46.2265 19.2769 44.5189C21.6404 42.8114 33.6787 32.2926 33.6787 32.2926L21.0177 32.7957Z" fill="url(#paint3_linear_9749_33737)"/>
<path d="M34.3964 28.7299L33.7603 28.821C33.5938 28.8457 33.4419 28.7292 33.4168 28.5649L33.2115 27.1502C33.1868 26.9837 33.3034 26.8319 33.4677 26.8067L34.1038 26.7155C34.2703 26.6909 34.4221 26.8074 34.4473 26.9717L34.6525 28.3863C34.6772 28.5529 34.5629 28.7052 34.3964 28.7299Z" fill="#FF81A0"/>
<path d="M36.2984 28.4546L35.6624 28.5458C35.4958 28.5705 35.344 28.4539 35.3188 28.2896L35.1136 26.875C35.0889 26.7085 35.2055 26.5566 35.3698 26.5315L36.0058 26.4403C36.1724 26.4156 36.3242 26.5322 36.3494 26.6965L36.5546 28.1111C36.5793 28.2776 36.465 28.43 36.2984 28.4546Z" fill="#FF81A0"/>
<path d="M38.3775 28.1526L37.7415 28.2438C37.5749 28.2685 37.4231 28.1519 37.3979 27.9876L37.1927 26.573C37.168 26.4065 37.2846 26.2547 37.4488 26.2295L38.0849 26.1383C38.2515 26.1136 38.4033 26.2302 38.4285 26.3945L38.6337 27.8091C38.6584 27.9756 38.5436 28.1302 38.3775 28.1526Z" fill="#FF81A0"/>
<path d="M50.0154 24.2349C48.0087 26.0855 45.2027 25.8781 45.2027 25.8781L44.8483 24.1533C46.8915 24.3077 47.76 23.6592 48.121 23.1636C49.0578 23.6176 49.7065 24.0362 50.0154 24.2349Z" fill="#FF81A0"/>
</g>
</g>
<defs>
<filter id="filter0_d_9749_33737" x="-15.4462" y="11.6637" width="79.5027" height="49.6889" filterUnits="userSpaceOnUse" color-interpolation-filters="sRGB">
<feFlood flood-opacity="0" result="BackgroundImageFix"/>
<feColorMatrix in="SourceAlpha" type="matrix" values="0 0 0 0 0 0 0 0 0 0 0 0 0 0 0 0 0 0 127 0" result="hardAlpha"/>
<feOffset dy="4"/>
<feGaussianBlur stdDeviation="6"/>
<feComposite in2="hardAlpha" operator="out"/>
<feColorMatrix type="matrix" values="0 0 0 0 0.799899 0 0 0 0 0.136684 0 0 0 0 0.313106 0 0 0 0.55 0"/>
<feBlend mode="normal" in2="BackgroundImageFix" result="effect1_dropShadow_9749_33737"/>
<feBlend mode="normal" in="SourceGraphic" in2="effect1_dropShadow_9749_33737" result="shape"/>
</filter>
<linearGradient id="paint0_linear_9749_33737" x1="28" y1="0" x2="28" y2="56" gradientUnits="userSpaceOnUse">
<stop stop-color="#FF3395"/>
<stop offset="1" stop-color="#FF3366"/>
</linearGradient>
<linearGradient id="paint1_linear_9749_33737" x1="28.0005" y1="0" x2="28.0005" y2="56" gradientUnits="userSpaceOnUse">
<stop stop-color="#FF3395"/>
<stop offset="1" stop-color="#FF3366"/>
</linearGradient>
<linearGradient id="paint2_linear_9749_33737" x1="22.7674" y1="31.6289" x2="21.1962" y2="23.1824" gradientUnits="userSpaceOnUse">
<stop stop-color="#FFF0F5"/>
<stop offset="0.447917" stop-color="white"/>
<stop offset="1" stop-color="#FFDAE5"/>
</linearGradient>
<linearGradient id="paint3_linear_9749_33737" x1="20.5055" y1="39.2666" x2="28.9665" y2="32.7062" gradientUnits="userSpaceOnUse">
<stop stop-color="white"/>
<stop offset="1" stop-color="#FFD2E4"/>
</linearGradient>
</defs>
</svg>
