<svg width="24" height="24" fill="none" class="jss3521">
<g clip-path="url(#ic_seat_2_svg__clip0)" fill="#1A202C">
<path d="M17.648 0a4.13 4.13 0 00-4.125 4.125V6.75a4.13 4.13 0 004.125 4.125 4.13 4.13 0 004.125-4.125V4.125A4.13 4.13 0 0017.648 0zm0 1.406c1.256 0 2.316.857 2.627 2.016h-5.253a2.723 2.723 0 012.626-2.016zm0 8.063c-1.499 0-2.718-1.22-2.718-2.719V4.828h5.437V6.75c0 1.5-1.22 2.719-2.719 2.719zM13.219 14.813H7.242V7.218A2.51 2.51 0 004.734 4.71a2.51 2.51 0 00-2.507 2.508v10.5c0 1.163.946 2.11 2.109 2.11h1.828v2.765h-.703a.703.703 0 000 1.406h6.563a.703.703 0 000-1.406h-.704v-2.766h3.704a.703.703 0 00.703-.703V17.32a2.51 2.51 0 00-2.508-2.508zm-3.305 7.78H7.57v-2.765h2.344v2.766zm4.406-4.171H4.336a.704.704 0 01-.703-.703v-10.5a1.103 1.103 0 012.203 0v8.297c0 .388.315.703.703.703h6.68c.607 0 1.101.494 1.101 1.101v1.102z">
</path>
</g>
<defs>
<clipPath id="ic_seat_2_svg__clip0">
<path fill="#fff" d="M0 0h24v24H0z">
</path>
</clipPath>
</defs>
</svg>